<svg xmlns="http://www.w3.org/2000/svg" viewBox="0 0 930.60352 885.05859">
<g transform="translate(993.87305,294.87695)">
<g transform="matrix(1,0,0,-1,0,295.30469)">
<path fill="#c8920a" d="m -816.14453,-294.87695 283.76172,385.738278 3.71093,-205.259768 -287.47265,-180.47851 z"/>
<path fill="#ffd700" d="m -816.14453,-294.87695 82.82812,329.240231 196.39844,59.91211 -279.22656,-389.152341 z"/>
<path fill="#c8920a" d="m -240.99805,-294.87695 -279.2207,389.142575 196.39453,-59.912109 82.82617,-329.230466 z"/>
<path fill="#ffd700" d="m -240.99805,-294.87695 -287.49804,180.49218 3.70898,205.279301 283.78906,-385.771481 z"/>
<path fill="#ffd700" d="M -323.72461,34.507812 -517.77148,101.45898 -63.269531,252.11914 -323.72461,34.507812 Z"/>
<path fill="#c8920a" d="M -63.269531,252.11914 -519.64453,106.81836 -401.97852,275.08594 -63.269531,252.11914 Z"/>
<path fill="#c8920a" d="M -733.42578,34.513672 -993.87305,252.11914 -539.38281,101.46289 -733.42578,34.513672 Z"/>
<path fill="#ffd700" d="m -993.87305,252.11914 338.6836,22.96484 117.66015,-168.2539 -456.34375,145.28906 z"/>
<path fill="#c8920a" d="m -531.4082,111.33008 -123.64844,163.875 126.48437,314.97656 -2.83593,-478.85156 z"/>
<path fill="#ffd700" d="M -528.57227,590.18164 -402.0957,275.22852 -525.73438,111.36328 -528.57227,590.18164 Z"/>
</g></g></svg>
